<mxfile host="65bd71144e">
    <diagram id="IHTlq8GNxvKQDNFS_iSP" name="Page-1">
        <mxGraphModel dx="1059" dy="637" grid="1" gridSize="10" guides="1" tooltips="1" connect="1" arrows="1" fold="1" page="1" pageScale="1" pageWidth="850" pageHeight="1100" math="0" shadow="0">
            <root>
                <mxCell id="0"/>
                <mxCell id="1" parent="0"/>
                <mxCell id="4" value="usuarios" style="html=1;" vertex="1" parent="1">
                    <mxGeometry x="370" y="300" width="110" height="50" as="geometry"/>
                </mxCell>
                <mxCell id="5" value="Use Case" style="ellipse;whiteSpace=wrap;html=1;" vertex="1" parent="1">
                    <mxGeometry x="380" y="150" width="140" height="70" as="geometry"/>
                </mxCell>
            </root>
        </mxGraphModel>
    </diagram>
</mxfile>